<?xml version="1.0" encoding="UTF-8"?>
<svg id="Layer_1" xmlns="http://www.w3.org/2000/svg" version="1.1" viewBox="0 0 16 16">
  <!-- Generator: Adobe Illustrator 29.3.1, SVG Export Plug-In . SVG Version: 2.1.0 Build 151)  -->
  <defs>
    <style>
      .st0 {
        fill: #ffe644;
      }
    </style>
  </defs>
  <path class="st0" d="M15.4,11l-3.4-1.5c-.1,0-.2,0-.4,0-.3,0-.6.1-.8.3l-1.4,1.7c-2.2-1.1-3.9-2.8-5-5l1.7-1.4c.2-.2.3-.4.3-.8s0-.2,0-.4l-1.5-3.4C4.8.3,4.5,0,4.1,0s-.2,0-.2,0L.8.8c-.4,0-.8.5-.8.9,0,7.9,6.4,14.3,14.3,14.3s.8-.3,1-.8l.7-3.2v-.2c0-.4-.2-.7-.6-.9ZM14.2,15C6.9,15,1,9.1,1,1.8l3.1-.7,1.4,3.3-2.3,1.9c1.5,3.2,3.3,5,6.5,6.5l1.8-2.3,3.3,1.4-.7,3.1Z"/>
</svg>